{"title":"IL Sequestro - The seizure (2004)","uid":6712809,"size":1468426240,"categoryP":"porn","categoryS":"movies","magnet":"?xt=urn:btih:a551139aebdabed50d783c847ddfad20b8c332c3&amp;dn=IL+Sequestro+-+The+seizure+%282004%29&amp;tr=udp%3A%2F%2Ftracker.openbittorrent.com%3A80&amp;tr=udp%3A%2F%2Fopen.demonii.com%3A1337&amp;tr=udp%3A%2F%2Ftracker.coppersurfer.tk%3A6969&amp;tr=udp%3A%2F%2Fexodus.desync.com%3A6969","seeders":0,"leechers":0,"uploader":"silviuss","files":1,"time":1317422650,"description":"IL Sequestro - The seizure (2004)\n\nCover: &lt;a href=&quot;\nhttp://imagebb.org/view.php?filename=629dd4556666vv43v.jpg&quot; rel=&quot;nofollow&quot; target=&quot;_NEW&quot;&gt;\nhttp://imagebb.org/view.php?filename=629dd4556666vv43v.jpg&lt;/a&gt;\n\nPreview: &lt;a href=&quot;\nhttp://imagebb.org/view.php?filename=785IL.Sequestro_s.jpg&quot; rel=&quot;nofollow&quot; target=&quot;_NEW&quot;&gt;\nhttp://imagebb.org/view.php?filename=785IL.Sequestro_s.jpg&lt;/a&gt;\n\nInfo:\nFormat                           : AVI\nFormat/Info                      : Audio Video Interleave\nFile size                        : 1.37 GiB\nDuration                         : 1h 24mn\nOverall bit rate                 : 2 308 Kbps\nWriting application              : VirtualDubMod 1.5.4.1 (build 2178/release)\nWriting library                  : VirtualDubMod build 2178/release\n\nVideo\nID                               : 0\nFormat                           : MPEG-4 Visual\nFormat profile                   : Advanced Simple@L5\nFormat settings, BVOP            : 1\nFormat settings, QPel            : No\nFormat settings, GMC             : No warppoints\nFormat settings, Matrix          : Custom\nCodec ID                         : XVID\nCodec ID/Hint                    : XviD\nDuration                         : 1h 24mn\nBit rate                         : 2 045 Kbps\nWidth                            : 704 pixels\nHeight                           : 528 pixels\nDisplay aspect ratio             : 4:3\nFrame rate                       : 25.000 fps\nColor space                      : YUV\nChroma subsampling               : 4:2:0\nBit depth                        : 8 bits\nScan type                        : Progressive\nCompression mode                 : Lossy\nBits/(Pixel*Frame)               : 0.220\nStream size                      : 1.21 GiB (89%)\nWriting library                  : XviD 1.2.0.dev47 (UTC 2006-11-01)\n\nAudio\nID                               : 1\nFormat                           : AC-3\nFormat/Info                      : Audio Coding 3\nMode extension                   : CM (complete main)\nCodec ID                         : 2000\nDuration                         : 1h 24mn\nBit rate mode                    : Constant\nBit rate                         : 256 Kbps\nChannel(s)                       : 2 channels\nChannel positions                : Front: L R\nSampling rate                    : 48.0 KHz\nBit depth                        : 16 bits\nCompression mode                 : Lossy\nStream size                      : 155 MiB (11%)\nAlignment                        : Split accross interleaves\nInterleave, duration             : 96 ms (2.40 video frames)\nInterleave, preload duration     : 96 ms\n","torrent":{"xt":"urn:btih:a551139aebdabed50d783c847ddfad20b8c332c3","amp;dn":"IL+Sequestro+-+The+seizure+%282004%29","amp;tr":["udp%3A%2F%2Ftracker.openbittorrent.com%3A80","udp%3A%2F%2Fopen.demonii.com%3A1337","udp%3A%2F%2Ftracker.coppersurfer.tk%3A6969","udp%3A%2F%2Fexodus.desync.com%3A6969"],"infoHash":"a551139aebdabed50d783c847ddfad20b8c332c3","infoHashBuffer":{"type":"Buffer","data":[165,81,19,154,235,218,190,213,13,120,60,132,125,223,173,32,184,195,50,195]},"announce":[],"urlList":[]}}